<svg id="svg" version="1.1" xmlns="http://www.w3.org/2000/svg" xmlns:xlink="http://www.w3.org/1999/xlink" width="400" height="400" viewBox="0, 0, 400,400"><g id="svgg"><path id="path0" d="M0.000 200.000 L 0.000 400.000 200.000 400.000 L 400.000 400.000 400.000 200.000 L 400.000 0.000 200.000 0.000 L 0.000 0.000 0.000 200.000 M211.604 125.581 L 222.461 132.802 222.570 127.729 L 222.679 122.656 228.332 122.656 L 233.984 122.656 233.984 132.813 L 233.984 142.969 225.499 142.969 L 217.014 142.969 208.335 137.109 C 203.561 133.887,199.572 131.250,199.469 131.250 C 199.367 131.250,193.864 134.959,187.240 139.491 C 180.615 144.024,173.218 149.061,170.801 150.684 L 166.406 153.636 166.406 180.708 L 166.406 207.780 187.793 207.699 C 209.050 207.618,209.190 207.612,210.798 206.752 C 217.702 203.059,217.671 193.811,210.742 190.113 C 209.296 189.341,208.397 189.262,198.633 189.042 C 187.212 188.785,187.032 188.754,182.379 186.274 C 169.044 179.166,168.599 158.858,181.605 151.006 C 186.584 148.000,185.780 148.069,216.409 148.036 L 243.734 148.007 251.639 153.398 L 259.545 158.789 256.628 159.031 C 255.024 159.164,239.449 159.296,222.017 159.324 L 190.324 159.375 188.282 160.449 C 181.832 163.843,181.916 173.195,188.428 176.677 C 189.938 177.485,190.699 177.553,200.586 177.769 C 212.023 178.018,213.170 178.216,217.326 180.651 C 233.226 189.969,229.761 213.890,211.835 218.559 C 209.959 219.047,205.201 219.141,182.144 219.141 L 154.688 219.141 154.688 189.063 L 154.688 158.984 146.987 158.984 C 140.348 158.984,139.365 158.908,139.858 158.433 C 140.172 158.130,143.463 155.801,147.170 153.257 C 202.149 115.536,197.919 118.359,199.459 118.359 C 200.478 118.359,203.017 119.870,211.604 125.581 M241.703 165.623 C 245.512 167.945,245.453 174.002,241.606 175.609 C 237.314 177.403,233.031 174.896,233.040 170.596 C 233.050 165.988,237.815 163.252,241.703 165.623 M244.248 184.473 C 244.366 186.460,244.484 195.073,244.509 203.613 L 244.555 219.141 238.879 219.141 L 233.203 219.141 233.203 200.000 L 233.203 180.859 238.618 180.859 L 244.032 180.859 244.248 184.473 M266.442 224.346 C 272.489 227.539,272.140 233.465,265.348 242.917 L 262.719 246.576 261.588 245.261 C 258.098 241.201,254.323 234.239,254.308 231.836 C 254.270 225.561,260.942 221.443,266.442 224.346 M260.413 228.177 C 257.370 229.945,259.119 235.156,262.755 235.156 C 266.236 235.156,267.695 230.398,264.878 228.235 C 264.112 227.647,261.385 227.611,260.413 228.177 M143.679 240.039 C 148.840 241.455,149.203 241.902,147.826 245.142 L 146.753 247.666 145.799 247.041 C 141.352 244.128,133.407 244.227,131.862 247.215 C 130.258 250.317,131.961 251.762,139.567 253.751 C 147.761 255.894,150.438 258.536,149.881 263.930 C 149.056 271.924,137.010 275.102,126.631 270.064 C 124.030 268.802,123.966 268.615,125.211 265.896 C 126.345 263.418,126.541 263.325,128.171 264.486 C 132.727 267.730,141.591 267.885,143.213 264.749 C 144.575 262.114,142.763 260.592,136.133 258.802 C 128.267 256.679,125.942 254.913,125.210 250.503 C 123.883 242.519,133.290 237.190,143.679 240.039 M162.109 244.141 L 162.109 247.266 165.430 247.266 L 168.750 247.266 168.750 249.805 L 168.750 252.344 165.404 252.344 L 162.058 252.344 162.181 258.971 C 162.325 266.673,162.467 267.019,165.462 266.954 C 166.431 266.933,167.427 266.714,167.675 266.466 C 168.412 265.728,168.619 265.915,169.522 268.142 C 170.706 271.058,169.097 272.277,164.091 272.257 C 157.755 272.232,156.298 269.884,156.233 259.601 L 156.187 252.382 154.168 252.265 C 153.057 252.201,152.192 252.017,152.246 251.855 C 152.300 251.694,152.344 250.596,152.344 249.414 L 152.344 247.266 154.297 247.266 L 156.250 247.266 156.250 244.141 L 156.250 241.016 159.180 241.016 L 162.109 241.016 162.109 244.141 M189.655 247.829 C 194.387 249.806,195.090 251.691,195.241 262.811 L 195.365 271.910 192.509 271.795 C 189.675 271.681,189.652 271.671,189.447 270.508 C 189.300 269.669,189.147 269.486,188.909 269.864 C 186.526 273.651,176.318 272.744,173.934 268.535 C 170.453 262.389,174.613 257.868,184.082 257.508 C 189.624 257.297,189.918 257.085,188.495 254.332 C 187.280 251.983,181.686 251.586,177.848 253.578 L 175.860 254.609 175.039 252.465 C 173.964 249.655,173.878 249.869,176.557 248.667 C 180.775 246.774,186.285 246.421,189.655 247.829 M205.992 250.684 C 206.755 252.563,208.411 256.598,209.672 259.650 L 211.965 265.198 214.648 258.283 C 216.124 254.479,217.736 250.444,218.231 249.316 L 219.131 247.266 222.092 247.266 C 224.735 247.266,225.029 247.339,224.832 247.949 C 223.664 251.575,212.663 277.014,211.797 278.093 C 209.169 281.363,204.377 282.392,200.293 280.563 C 198.140 279.598,198.118 279.510,199.423 276.935 L 200.409 274.989 201.552 275.581 C 204.357 277.031,207.719 275.697,208.433 272.852 C 208.728 271.676,208.964 272.286,202.380 257.143 C 197.654 246.273,197.740 247.266,201.522 247.266 L 204.606 247.266 205.992 250.684 M247.649 249.316 C 247.641 251.577,247.868 251.264,238.132 262.447 C 236.223 264.639,234.788 266.558,234.942 266.712 C 235.096 266.866,238.151 266.992,241.732 266.992 L 248.242 266.992 248.358 269.434 L 248.475 271.875 237.323 271.875 L 226.172 271.875 226.172 269.930 L 226.172 267.986 232.813 260.363 C 236.465 256.170,239.453 252.651,239.453 252.542 C 239.453 252.433,236.553 252.344,233.008 252.344 L 226.563 252.344 226.563 249.805 L 226.563 247.266 237.109 247.266 L 247.656 247.266 247.649 249.316 M259.471 256.161 C 261.428 260.946,263.155 264.726,263.308 264.560 C 263.462 264.394,265.088 260.479,266.922 255.859 L 270.256 247.461 273.263 247.346 C 276.022 247.240,276.245 247.289,275.985 247.932 C 275.829 248.317,275.296 249.688,274.800 250.977 C 273.334 254.786,264.966 274.802,264.307 276.077 C 261.819 280.888,256.448 282.757,251.456 280.548 C 249.289 279.590,249.343 279.797,250.612 277.292 C 251.479 275.581,251.730 275.352,252.468 275.597 C 258.029 277.452,260.967 274.332,258.688 268.993 C 258.034 267.463,255.834 262.344,253.797 257.617 C 248.778 245.967,248.907 247.210,252.730 247.347 L 255.913 247.461 259.471 256.161 M181.365 261.761 C 177.308 262.934,178.336 267.179,182.755 267.498 C 186.853 267.795,189.063 266.231,189.063 263.033 L 189.063 261.328 185.840 261.363 C 184.067 261.383,182.054 261.561,181.365 261.761 " stroke="none" fill="#fbfbfb" fill-rule="evenodd"></path><path id="path1" d="M188.645 125.048 C 180.077 130.943,167.387 139.635,147.710 153.085 L 139.366 158.789 147.222 158.895 L 155.078 159.001 155.078 189.090 L 155.078 219.179 182.715 219.049 C 212.726 218.908,211.684 218.981,216.211 216.707 C 228.176 210.698,231.094 194.580,221.996 184.753 C 217.591 179.995,213.850 178.475,205.760 178.157 L 199.997 177.930 199.820 179.102 C 199.723 179.746,199.691 180.889,199.749 181.641 C 199.807 182.393,199.887 184.370,199.927 186.035 L 200.000 189.063 204.154 189.063 C 209.047 189.063,210.793 189.506,212.859 191.275 C 218.034 195.704,216.915 204.021,210.758 206.888 L 208.789 207.805 187.402 207.809 L 166.016 207.813 166.019 180.762 L 166.021 153.711 176.850 146.289 C 200.160 130.311,199.559 130.695,200.304 131.345 C 200.674 131.667,204.528 134.326,208.869 137.254 L 216.762 142.578 225.311 142.578 L 233.859 142.578 233.805 138.184 C 233.775 135.767,233.715 131.372,233.672 128.418 L 233.594 123.047 228.320 123.047 L 223.047 123.047 222.974 125.879 C 222.933 127.437,222.869 129.150,222.831 129.688 C 222.793 130.225,222.738 131.231,222.709 131.923 L 222.656 133.182 211.816 125.968 C 198.024 116.789,200.504 116.887,188.645 125.048 M133.490 239.854 C 128.482 241.116,125.391 244.737,125.391 249.340 C 125.391 254.040,128.124 256.507,135.441 258.411 C 141.847 260.079,143.750 261.287,143.750 263.691 C 143.750 267.883,134.137 268.443,128.057 264.606 C 127.195 264.061,126.443 263.672,126.388 263.741 C 126.333 263.811,125.831 264.881,125.272 266.120 L 124.256 268.373 125.702 269.316 C 134.079 274.780,147.991 272.218,149.556 264.922 C 150.724 259.478,148.027 256.216,140.759 254.280 C 132.816 252.164,131.250 251.251,131.250 248.736 C 131.250 244.625,138.389 243.277,144.549 246.225 C 145.704 246.778,146.674 247.195,146.704 247.150 C 147.944 245.335,148.756 242.416,148.147 241.966 C 145.696 240.156,137.168 238.927,133.490 239.854 M156.250 244.531 L 156.250 247.656 154.297 247.656 L 152.344 247.656 152.344 249.966 L 152.344 252.275 154.199 252.212 L 156.055 252.148 156.250 259.766 C 156.471 268.388,156.844 269.603,159.717 271.069 C 162.531 272.504,167.054 272.419,169.404 270.887 L 170.254 270.333 169.420 268.359 C 168.798 266.888,168.433 266.450,167.985 266.638 C 163.211 268.645,162.109 267.207,162.109 258.969 L 162.109 252.344 164.746 252.274 C 166.196 252.236,167.690 252.206,168.066 252.207 C 168.640 252.210,168.750 251.843,168.750 249.933 L 168.750 247.656 165.430 247.656 L 162.109 247.656 162.109 244.531 L 162.109 241.406 159.180 241.406 L 156.250 241.406 156.250 244.531 M178.375 248.079 C 177.116 248.512,175.674 249.136,175.171 249.466 L 174.256 250.065 175.051 252.084 C 175.489 253.193,175.882 254.137,175.926 254.181 C 175.969 254.224,176.916 253.809,178.030 253.258 C 183.365 250.618,189.008 252.175,189.199 256.339 L 189.258 257.617 183.789 257.813 C 174.948 258.128,171.224 261.678,173.648 267.479 C 175.756 272.524,185.165 273.952,188.648 269.755 C 189.454 268.784,189.844 269.030,189.844 270.508 L 189.844 271.875 192.616 271.875 L 195.388 271.875 195.249 263.184 C 195.066 251.759,194.222 249.672,189.039 247.843 C 186.615 246.988,181.199 247.108,178.375 248.079 M199.275 247.604 C 198.570 248.063,198.513 247.909,204.192 260.905 L 209.070 272.070 208.205 273.705 C 206.736 276.482,204.530 277.072,201.097 275.607 C 200.513 275.357,198.032 279.070,198.509 279.481 C 200.336 281.056,205.354 281.698,207.983 280.694 C 211.422 279.381,212.036 278.445,216.377 267.905 C 218.088 263.751,220.639 257.627,222.046 254.297 C 223.453 250.967,224.605 248.103,224.607 247.932 C 224.608 247.762,223.338 247.674,221.785 247.737 L 218.960 247.852 215.580 256.445 C 213.721 261.172,212.070 265.004,211.913 264.960 C 211.755 264.917,210.959 263.247,210.145 261.249 C 209.330 259.252,207.725 255.332,206.578 252.539 L 204.492 247.461 202.148 247.360 C 200.859 247.304,199.566 247.414,199.275 247.604 M272.738 247.626 L 270.280 247.852 266.949 256.250 C 265.117 260.869,263.481 264.789,263.314 264.960 C 263.147 265.131,261.378 261.308,259.383 256.464 L 255.755 247.656 252.877 247.656 C 251.295 247.656,250.000 247.815,250.000 248.009 C 250.000 248.422,252.298 253.869,256.931 264.437 L 260.263 272.039 259.388 273.690 C 257.914 276.467,255.690 277.077,252.319 275.626 C 251.623 275.326,249.705 278.895,250.164 279.637 C 251.672 282.076,259.175 281.540,262.046 278.789 C 264.222 276.703,276.933 247.051,275.531 247.333 C 275.346 247.370,274.089 247.502,272.738 247.626 M226.563 249.805 L 226.563 251.953 227.832 252.001 C 228.530 252.027,231.508 252.159,234.448 252.294 L 239.795 252.539 232.998 260.352 C 226.271 268.085,226.202 268.183,226.187 270.020 L 226.172 271.875 237.109 271.875 L 248.047 271.875 248.047 269.531 L 248.047 267.188 241.211 267.188 C 237.451 267.188,234.375 267.050,234.375 266.882 C 234.375 266.714,237.341 263.109,240.966 258.870 C 247.449 251.290,247.557 251.134,247.509 249.412 L 247.461 247.661 237.012 247.659 L 226.563 247.656 226.563 249.805 M189.453 262.877 C 189.453 266.997,182.920 269.650,179.858 266.774 C 176.749 263.853,179.337 261.332,185.449 261.330 L 189.453 261.328 189.453 262.877 " stroke="none" fill="#364688" fill-rule="evenodd"></path><path id="path2" d="M188.867 148.444 C 169.543 152.297,166.026 178.169,183.670 186.678 C 187.434 188.493,190.348 189.055,196.014 189.060 L 200.035 189.063 199.920 183.639 L 199.805 178.216 195.117 178.056 C 184.190 177.683,179.138 168.662,186.073 161.906 C 189.160 158.898,188.241 158.993,214.889 158.915 C 227.862 158.877,237.246 158.733,235.742 158.594 C 234.238 158.455,233.228 158.310,233.496 158.272 C 234.130 158.182,233.966 157.477,233.099 156.569 C 232.692 156.143,232.478 155.467,232.577 154.922 C 232.714 154.162,232.608 154.033,231.980 154.197 C 231.560 154.307,231.245 154.242,231.280 154.054 C 231.467 153.033,231.205 152.696,230.420 152.945 C 229.887 153.114,229.680 153.063,229.842 152.801 C 230.001 152.543,229.731 152.458,229.110 152.571 C 228.482 152.685,228.123 152.570,228.119 152.254 C 228.115 151.903,228.008 151.925,227.754 152.326 C 227.443 152.817,227.256 152.819,226.367 152.344 C 225.561 151.912,225.275 151.898,225.041 152.277 C 224.871 152.552,224.446 152.647,224.057 152.498 C 223.507 152.287,223.475 152.161,223.893 151.862 C 224.259 151.600,224.182 151.571,223.633 151.766 C 221.982 152.352,220.703 152.345,220.703 151.750 C 220.703 151.432,220.479 151.172,220.204 151.172 C 219.929 151.172,219.404 150.820,219.036 150.391 C 218.668 149.961,218.003 149.609,217.559 149.609 C 217.111 149.609,216.860 149.432,216.996 149.212 C 217.131 148.994,217.405 148.917,217.605 149.040 C 217.805 149.164,217.969 149.089,217.969 148.875 C 217.969 148.660,218.628 148.416,219.434 148.331 C 220.239 148.247,214.043 148.168,205.664 148.155 C 197.285 148.143,189.727 148.273,188.867 148.444 M236.237 148.330 C 236.940 148.417,237.994 148.415,238.581 148.326 C 239.168 148.237,238.594 148.166,237.305 148.168 C 236.016 148.170,235.535 148.243,236.237 148.330 M248.047 158.624 C 246.045 158.802,246.499 158.857,250.195 158.886 C 254.849 158.922,255.715 158.778,252.344 158.528 C 251.377 158.456,249.443 158.499,248.047 158.624 M234.690 166.699 C 233.707 167.845,233.326 168.650,234.043 168.070 C 234.373 167.803,234.736 167.679,234.851 167.793 C 234.965 167.908,235.144 167.555,235.249 167.009 C 235.474 165.829,235.449 165.816,234.690 166.699 M242.572 166.995 C 244.128 168.869,244.259 168.989,243.834 168.160 C 243.613 167.728,243.020 167.026,242.517 166.600 C 241.634 165.853,241.636 165.867,242.572 166.995 M237.760 170.574 C 237.616 170.717,237.774 171.139,238.111 171.512 C 238.484 171.924,238.571 172.282,238.334 172.429 C 238.120 172.561,237.834 172.490,237.699 172.272 C 237.564 172.054,237.586 171.875,237.747 171.875 C 237.908 171.875,237.702 171.628,237.289 171.326 C 236.644 170.854,236.388 170.854,235.476 171.326 C 234.085 172.045,233.689 172.019,233.472 171.191 C 233.307 170.557,233.291 170.558,233.248 171.211 C 233.191 172.103,234.080 173.836,235.019 174.662 C 235.948 175.479,237.715 176.055,237.317 175.410 C 236.838 174.635,237.455 173.047,238.235 173.047 C 238.749 173.047,238.929 172.795,238.864 172.168 C 238.813 171.685,238.749 171.069,238.722 170.801 C 238.668 170.271,238.178 170.156,237.760 170.574 M242.339 173.509 C 242.226 173.692,241.984 173.748,241.801 173.635 C 241.617 173.522,241.204 173.958,240.881 174.605 C 240.207 175.957,240.259 175.990,241.805 175.191 C 243.167 174.487,244.026 173.177,243.126 173.177 C 242.806 173.177,242.451 173.326,242.339 173.509 M237.109 181.445 C 236.564 182.103,235.156 182.243,235.156 181.641 C 235.156 181.426,234.822 181.250,234.414 181.250 C 233.386 181.250,233.122 186.739,233.278 204.819 L 233.398 218.818 238.770 218.881 L 244.141 218.945 244.141 199.902 L 244.141 180.859 240.868 180.859 C 238.436 180.859,237.471 181.010,237.109 181.445 M255.788 227.441 C 253.330 230.888,255.657 238.025,261.408 244.677 L 262.705 246.177 264.885 243.108 C 269.800 236.190,271.651 231.932,269.366 232.801 C 268.788 233.021,268.405 233.054,268.516 232.875 C 268.750 232.496,267.689 230.859,267.209 230.859 C 267.030 230.859,266.774 231.446,266.639 232.164 C 266.027 235.426,261.949 236.555,259.734 234.076 C 258.534 232.733,258.254 231.052,258.998 229.662 C 259.312 229.074,259.275 228.906,258.829 228.906 C 258.169 228.906,256.540 226.794,256.913 226.421 C 257.049 226.284,257.056 226.172,256.928 226.172 C 256.799 226.172,256.286 226.743,255.788 227.441 M268.140 234.805 C 268.020 234.998,268.079 235.156,268.271 235.156 C 268.463 235.156,268.576 235.552,268.522 236.035 C 268.468 236.519,268.410 237.067,268.392 237.255 C 268.374 237.442,268.113 237.391,267.811 237.141 C 267.391 236.792,267.216 236.803,267.061 237.191 C 266.950 237.468,266.845 237.202,266.828 236.598 C 266.811 235.995,266.637 235.600,266.442 235.720 C 265.773 236.134,264.784 235.503,265.240 234.954 C 265.704 234.395,268.482 234.251,268.140 234.805 " stroke="none" fill="#f2734f" fill-rule="evenodd"></path><path id="path3" d="M219.434 148.316 C 218.628 148.409,217.969 148.660,217.969 148.875 C 217.969 149.089,217.805 149.164,217.605 149.040 C 217.405 148.917,217.131 148.994,216.996 149.212 C 216.860 149.432,217.111 149.609,217.559 149.609 C 218.003 149.609,218.668 149.961,219.036 150.391 C 219.404 150.820,219.929 151.172,220.204 151.172 C 220.479 151.172,220.703 151.432,220.703 151.750 C 220.703 152.345,221.982 152.352,223.633 151.766 C 224.182 151.571,224.259 151.600,223.893 151.862 C 223.475 152.161,223.507 152.287,224.057 152.498 C 224.446 152.647,224.871 152.552,225.041 152.277 C 225.275 151.898,225.561 151.912,226.367 152.344 C 227.256 152.819,227.443 152.817,227.754 152.326 C 228.038 151.876,228.114 151.868,228.119 152.288 C 228.122 152.592,228.369 152.724,228.698 152.598 C 229.014 152.477,229.380 152.553,229.513 152.767 C 229.645 152.982,230.090 153.050,230.502 152.919 C 231.201 152.697,231.459 153.075,231.280 154.054 C 231.245 154.242,231.560 154.307,231.980 154.197 C 232.608 154.033,232.714 154.162,232.577 154.922 C 232.471 155.502,232.702 156.140,233.197 156.634 C 234.154 157.592,234.202 157.825,233.529 158.251 C 233.211 158.453,233.998 158.596,235.547 158.618 C 236.943 158.638,238.613 158.719,239.258 158.798 C 241.815 159.113,248.972 159.304,247.266 159.012 L 245.508 158.711 248.047 158.591 C 249.443 158.525,250.850 158.495,251.172 158.524 C 257.017 159.055,259.547 158.954,258.605 158.227 C 258.074 157.818,257.502 157.567,257.335 157.671 C 257.168 157.774,257.031 157.681,257.031 157.464 C 257.031 156.904,253.584 154.599,253.149 154.868 C 252.951 154.991,252.661 154.885,252.506 154.634 C 252.329 154.348,252.392 154.281,252.674 154.455 C 252.922 154.608,253.125 154.668,253.125 154.589 C 253.125 154.509,251.119 153.074,248.667 151.399 L 244.209 148.354 232.553 148.250 C 226.143 148.194,220.239 148.223,219.434 148.316 M202.274 159.277 C 208.789 159.337,219.335 159.337,225.712 159.277 C 232.088 159.217,226.758 159.168,213.867 159.168 C 200.977 159.168,195.760 159.217,202.274 159.277 M235.687 165.595 C 235.012 166.006,234.323 166.577,234.155 166.863 C 233.987 167.149,234.209 167.069,234.647 166.685 C 235.424 166.005,235.439 166.011,235.260 166.948 C 235.127 167.644,234.869 167.869,234.325 167.764 C 233.911 167.684,233.676 167.786,233.802 167.989 C 233.928 168.193,233.826 168.359,233.575 168.359 C 233.325 168.359,233.221 168.623,233.344 168.945 C 233.468 169.268,233.399 169.531,233.191 169.531 C 232.983 169.531,232.815 170.015,232.818 170.605 C 232.823 171.443,232.908 171.550,233.203 171.094 C 233.527 170.593,233.583 170.607,233.588 171.191 C 233.595 172.018,234.071 172.052,235.476 171.326 C 236.508 170.792,237.658 171.108,237.832 171.973 C 237.864 172.134,237.979 172.266,238.086 172.266 C 238.193 172.266,238.396 172.266,238.537 172.266 C 238.678 172.266,238.491 171.932,238.121 171.523 C 237.530 170.870,237.907 169.808,238.514 170.415 C 239.149 171.050,238.956 173.047,238.260 173.047 C 237.527 173.047,237.112 174.002,237.199 175.488 C 237.231 176.028,237.596 176.172,238.932 176.172 C 239.863 176.172,240.597 176.040,240.562 175.879 C 240.429 175.263,241.422 173.401,241.769 173.616 C 241.970 173.740,242.249 173.654,242.391 173.425 C 242.571 173.133,242.804 173.139,243.172 173.444 C 243.917 174.062,244.531 172.766,244.531 170.575 C 244.531 169.337,244.350 168.764,243.905 168.593 C 243.560 168.461,243.372 168.109,243.486 167.812 C 243.705 167.241,242.573 166.022,241.139 165.283 C 239.814 164.601,237.059 164.758,235.687 165.595 M171.996 168.555 C 171.998 169.844,172.071 170.324,172.158 169.622 C 172.245 168.920,172.243 167.865,172.154 167.278 C 172.065 166.691,171.994 167.266,171.996 168.555 M193.652 178.022 C 194.780 178.101,196.626 178.101,197.754 178.022 C 198.882 177.943,197.959 177.879,195.703 177.879 C 193.447 177.879,192.524 177.943,193.652 178.022 M233.278 183.496 L 233.354 186.133 233.492 183.691 C 233.612 181.578,233.733 181.250,234.394 181.250 C 234.813 181.250,235.156 181.426,235.156 181.641 C 235.156 182.243,236.564 182.103,237.109 181.445 C 237.532 180.936,237.307 180.859,235.399 180.859 L 233.203 180.859 233.278 183.496 M235.050 219.032 C 235.743 219.118,236.974 219.120,237.784 219.035 C 238.595 218.951,238.027 218.880,236.523 218.878 C 235.020 218.876,234.356 218.946,235.050 219.032 M240.723 219.030 C 241.313 219.119,242.280 219.119,242.871 219.030 C 243.462 218.940,242.979 218.867,241.797 218.867 C 240.615 218.867,240.132 218.940,240.723 219.030 M259.180 224.085 C 257.721 224.853,255.915 226.507,255.409 227.539 C 255.120 228.128,255.209 228.093,255.773 227.394 L 256.520 226.468 257.388 227.687 C 257.866 228.358,258.471 228.906,258.733 228.906 C 259.494 228.906,262.104 227.469,261.834 227.198 C 261.699 227.063,262.068 226.953,262.653 226.953 C 263.264 226.953,263.615 227.120,263.477 227.344 C 263.344 227.559,263.485 227.734,263.791 227.734 C 264.873 227.734,266.404 229.726,266.459 231.206 C 266.494 232.116,266.573 232.305,266.682 231.738 C 266.775 231.255,267.005 230.859,267.193 230.859 C 267.685 230.859,268.755 232.489,268.516 232.875 C 268.405 233.054,268.753 233.034,269.289 232.830 C 270.073 232.532,270.297 232.589,270.438 233.125 C 270.534 233.490,270.630 232.734,270.652 231.445 C 270.680 229.745,270.582 229.262,270.295 229.688 C 269.994 230.132,269.953 230.034,270.126 229.286 C 270.970 225.627,263.235 221.952,259.180 224.085 M254.395 231.445 C 254.400 232.305,254.480 232.610,254.573 232.124 C 254.667 231.638,254.663 230.935,254.565 230.562 C 254.467 230.188,254.391 230.586,254.395 231.445 M265.197 234.035 L 264.184 235.086 265.129 235.517 C 265.649 235.754,266.237 235.847,266.436 235.724 C 266.634 235.601,266.811 235.995,266.828 236.598 C 266.845 237.202,266.951 237.465,267.064 237.183 C 267.224 236.782,267.422 236.810,267.978 237.313 C 268.641 237.913,268.717 237.901,269.126 237.136 C 269.468 236.497,269.454 236.340,269.060 236.420 C 268.782 236.477,268.579 236.216,268.609 235.840 C 268.639 235.464,268.497 235.156,268.293 235.156 C 268.089 235.156,268.040 234.966,268.184 234.734 C 268.340 234.482,268.152 234.342,267.718 234.388 C 265.969 234.573,265.503 234.406,266.023 233.780 C 266.883 232.744,266.255 232.938,265.197 234.035 M259.851 234.193 C 260.436 234.807,260.984 235.232,261.069 235.136 C 261.155 235.040,260.677 234.537,260.007 234.018 L 258.789 233.075 259.851 234.193 " stroke="none" fill="#f38f57" fill-rule="evenodd"></path><path id="path4" d="M198.735 118.636 C 199.221 118.729,199.924 118.726,200.298 118.628 C 200.671 118.530,200.273 118.454,199.414 118.458 C 198.555 118.462,198.249 118.542,198.735 118.636 M222.734 125.684 L 222.811 128.711 222.946 125.879 L 223.081 123.047 228.326 123.047 L 233.572 123.047 233.692 128.418 L 233.813 133.789 233.899 128.223 L 233.984 122.656 228.320 122.656 L 222.656 122.656 222.734 125.684 M197.461 132.261 L 196.289 133.268 197.559 132.428 C 198.257 131.965,198.828 131.512,198.828 131.419 C 198.828 131.126,198.663 131.228,197.461 132.261 M187.695 138.901 L 186.523 139.908 187.793 139.068 C 188.491 138.606,189.063 138.152,189.063 138.059 C 189.063 137.767,188.897 137.869,187.695 138.901 M220.996 142.870 C 223.413 142.938,227.368 142.938,229.785 142.870 C 232.202 142.801,230.225 142.745,225.391 142.745 C 220.557 142.745,218.579 142.801,220.996 142.870 M166.201 180.664 C 166.201 195.703,166.249 201.799,166.308 194.210 C 166.368 186.621,166.368 174.316,166.308 166.866 C 166.249 159.416,166.201 165.625,166.201 180.664 M154.873 189.063 C 154.873 205.713,154.922 212.524,154.980 204.199 C 155.039 195.874,155.039 182.251,154.980 173.926 C 154.922 165.601,154.873 172.412,154.873 189.063 M238.175 159.266 C 238.868 159.353,240.099 159.354,240.909 159.269 C 241.720 159.185,241.152 159.114,239.648 159.113 C 238.145 159.111,237.481 159.180,238.175 159.266 M250.098 159.269 C 250.903 159.353,252.222 159.353,253.027 159.269 C 253.833 159.185,253.174 159.116,251.563 159.116 C 249.951 159.116,249.292 159.185,250.098 159.269 M202.652 178.024 C 204.003 178.100,206.113 178.100,207.340 178.023 C 208.566 177.945,207.461 177.883,204.883 177.884 C 202.305 177.884,201.301 177.947,202.652 178.024 M221.468 184.082 C 222.426 185.103,223.261 185.938,223.324 185.938 C 223.617 185.938,223.307 185.587,221.582 183.968 L 219.727 182.227 221.468 184.082 M244.318 204.102 C 244.318 212.480,244.370 215.853,244.433 211.595 C 244.496 207.338,244.496 200.482,244.433 196.361 C 244.370 192.239,244.318 195.723,244.318 204.102 M212.109 190.747 C 212.109 190.814,212.681 191.386,213.379 192.017 L 214.648 193.164 213.501 191.895 C 212.432 190.711,212.109 190.445,212.109 190.747 M213.061 205.176 L 211.914 206.445 213.184 205.298 C 214.367 204.229,214.633 203.906,214.331 203.906 C 214.264 203.906,213.692 204.478,213.061 205.176 M208.301 219.019 C 208.677 219.118,209.292 219.118,209.668 219.019 C 210.044 218.921,209.736 218.841,208.984 218.841 C 208.232 218.841,207.925 218.921,208.301 219.019 M137.016 239.339 C 137.502 239.432,138.205 239.429,138.579 239.331 C 138.952 239.233,138.555 239.157,137.695 239.161 C 136.836 239.165,136.530 239.245,137.016 239.339 M157.725 241.302 C 158.644 241.385,160.050 241.384,160.850 241.300 C 161.650 241.216,160.898 241.148,159.180 241.150 C 157.461 241.151,156.806 241.220,157.725 241.302 M127.514 243.066 L 126.367 244.336 127.637 243.189 C 128.820 242.119,129.086 241.797,128.784 241.797 C 128.717 241.797,128.146 242.368,127.514 243.066 M136.628 244.814 C 137.330 244.901,138.385 244.899,138.972 244.810 C 139.559 244.721,138.984 244.650,137.695 244.652 C 136.406 244.654,135.926 244.727,136.628 244.814 M183.105 247.158 C 183.804 247.244,184.946 247.244,185.645 247.158 C 186.343 247.071,185.771 247.000,184.375 247.000 C 182.979 247.000,182.407 247.071,183.105 247.158 M153.223 247.545 C 153.813 247.635,154.780 247.635,155.371 247.545 C 155.962 247.456,155.479 247.383,154.297 247.383 C 153.115 247.383,152.632 247.456,153.223 247.545 M163.781 247.553 C 164.808 247.634,166.390 247.633,167.297 247.551 C 168.204 247.469,167.363 247.403,165.430 247.404 C 163.496 247.405,162.754 247.472,163.781 247.553 M219.006 247.559 C 218.906 247.720,220.214 247.852,221.912 247.852 C 223.611 247.852,225.000 247.720,225.000 247.559 C 225.000 247.397,223.692 247.266,222.093 247.266 C 220.495 247.266,219.105 247.397,219.006 247.559 M231.738 247.558 C 234.692 247.624,239.526 247.624,242.480 247.558 C 245.435 247.491,243.018 247.437,237.109 247.437 C 231.201 247.437,228.784 247.491,231.738 247.558 M249.608 247.543 C 249.608 247.713,250.951 247.793,252.593 247.721 C 254.758 247.627,255.678 247.734,255.943 248.112 C 256.235 248.526,256.277 248.513,256.151 248.047 C 255.979 247.415,249.610 246.925,249.608 247.543 M270.178 247.559 C 270.078 247.720,270.815 247.800,271.815 247.737 C 274.914 247.543,275.301 247.374,272.777 247.319 C 271.447 247.290,270.277 247.397,270.178 247.559 M125.091 249.219 C 125.091 249.971,125.171 250.278,125.269 249.902 C 125.368 249.526,125.368 248.911,125.269 248.535 C 125.171 248.159,125.091 248.467,125.091 249.219 M154.004 252.222 C 154.380 252.321,154.995 252.321,155.371 252.222 C 155.747 252.124,155.439 252.044,154.688 252.044 C 153.936 252.044,153.628 252.124,154.004 252.222 M182.331 252.236 C 183.033 252.323,184.088 252.321,184.675 252.232 C 185.262 252.143,184.688 252.072,183.398 252.074 C 182.109 252.076,181.629 252.149,182.331 252.236 M227.441 252.233 C 228.032 252.322,228.999 252.322,229.590 252.233 C 230.181 252.143,229.697 252.070,228.516 252.070 C 227.334 252.070,226.851 252.143,227.441 252.233 M189.093 256.530 C 189.064 257.360,188.890 257.401,184.863 257.521 L 180.664 257.647 184.876 257.730 C 189.196 257.815,189.890 257.571,189.325 256.165 C 189.215 255.890,189.110 256.054,189.093 256.530 M146.484 256.372 C 146.484 256.439,147.056 257.011,147.754 257.642 L 149.023 258.789 147.876 257.520 C 146.807 256.336,146.484 256.070,146.484 256.372 M240.796 259.082 L 239.648 260.352 240.918 259.204 C 241.616 258.573,242.188 258.002,242.188 257.935 C 242.188 257.633,241.865 257.899,240.796 259.082 M189.169 262.891 C 189.169 263.857,189.245 264.253,189.338 263.770 C 189.431 263.286,189.431 262.495,189.338 262.012 C 189.245 261.528,189.169 261.924,189.169 262.891 M234.375 266.884 C 234.375 267.051,235.078 267.188,235.938 267.188 C 236.797 267.188,237.500 267.118,237.500 267.033 C 237.500 266.948,236.797 266.812,235.938 266.730 C 235.078 266.648,234.375 266.717,234.375 266.884 M244.611 267.079 L 248.010 267.217 248.154 269.449 L 248.298 271.680 248.270 269.336 L 248.242 266.992 244.727 266.967 L 241.211 266.941 244.611 267.079 M182.525 267.858 C 183.119 267.948,183.998 267.946,184.478 267.853 C 184.958 267.760,184.473 267.687,183.398 267.690 C 182.324 267.693,181.931 267.769,182.525 267.858 M188.439 270.020 L 187.695 270.898 188.545 270.181 C 189.385 269.472,189.397 269.476,189.561 270.571 C 189.722 271.645,189.729 271.640,189.785 270.410 C 189.854 268.919,189.467 268.806,188.439 270.020 M261.889 279.004 L 260.742 280.273 262.012 279.126 C 262.710 278.495,263.281 277.924,263.281 277.857 C 263.281 277.555,262.959 277.821,261.889 279.004 M204.004 281.519 C 204.380 281.618,204.995 281.618,205.371 281.519 C 205.747 281.421,205.439 281.341,204.688 281.341 C 203.936 281.341,203.628 281.421,204.004 281.519 " stroke="none" fill="#a4a7c1" fill-rule="evenodd"></path></g></svg>